<?xml version="1.0" encoding="UTF-8"?>
<svg id="Layer_2" data-name="Layer 2" xmlns="http://www.w3.org/2000/svg" version="1.1" viewBox="0 0 422.4 398.2">
  <defs>
    <style>
      .cls-1 {
        stroke-width: 2px;
      }

      .cls-1, .cls-2 {
        stroke: #fff;
      }

      .cls-1, .cls-2, .cls-3, .cls-4, .cls-5 {
        stroke-miterlimit: 10;
      }

      .cls-1, .cls-3, .cls-4 {
        fill: none;
      }

      .cls-6 {
        stroke-width: 0px;
      }

      .cls-6, .cls-5 {
        fill: #a2a8a2;
      }

      .cls-2 {
        fill: #e05b26;
        stroke-width: 4px;
      }

      .cls-3 {
        stroke: #576253;
      }

      .cls-3, .cls-4 {
        stroke-width: 12px;
      }

      .cls-4, .cls-5 {
        stroke: #a2a8a2;
      }

      .cls-5 {
        stroke-width: 9px;
      }
    </style>
  </defs>
  <g>
    <path class="cls-3" d="M45,113.9s-5,153.8,98,125.8"/>
    <path class="cls-4" d="M70,92.7s-29,49-50,0"/>
  </g>
  <rect class="cls-6" x="190.4" y="30.7" width="11" height="62"/>
  <rect class="cls-2" x="142.9" y="72.7" width="104.5" height="86" rx="13.4" ry="13.4"/>
  <rect class="cls-2" x="117" y="158.7" width="156.5" height="237.4" rx="30" ry="30"/>
  <circle class="cls-3" cx="195.3" cy="21.2" r="15.2"/>
  <path class="cls-6" d="M119.7,335.4v-122.1c0-12.8,10.4-23.2,23.2-23.2h0c12.8,0,23.2,10.4,23.2,23.2v122.1c0,12.8-10.4,23.2-23.2,23.2h0c-12.8,0-23.2-10.4-23.2-23.2Z"/>
  <g>
    <path class="cls-4" d="M221.4,76.3s-58.9-40.8-73.4,65.2"/>
    <polygon class="cls-6" points="209.4 71.8 238.8 44 220.4 83.5 209.4 71.8"/>
  </g>
  <polygon class="cls-4" points="151.2 144.5 144.4 141.9 144.5 153.2 151.2 144.5"/>
  <circle class="cls-5" cx="188.7" cy="107" r="9"/>
  <path class="cls-1" d="M197.7,107s-8.5-16.2-16.9,0"/>
  <g>
    <path class="cls-3" d="M320,354.9s4.3-153.8-98.6-125.3"/>
    <path class="cls-4" d="M295.1,376.1s28.8-49.1,50-.2"/>
  </g>
</svg>